<svg xmlns="http://www.w3.org/2000/svg" xmlns:xlink="http://www.w3.org/1999/xlink" viewBox="0 0 1490.03 1154"><defs><linearGradient id="linear-gradient" y1="567.33" x2="1038.5" y2="567.33" gradientTransform="matrix(1, 0, 0, -1, 0, 1144.33)" gradientUnits="userSpaceOnUse"><stop offset="0" stop-color="#4cc4d6" stop-opacity="0.09"/><stop offset="1" stop-color="#1b8799"/></linearGradient><clipPath id="clip-path"><rect x="179.71" y="471.14" width="992" height="449.27" style="fill:none"/></clipPath></defs><title>home-background</title><g id="Layer_2" data-name="Layer 2"><g id="Layer_1-2" data-name="Layer 1"><path d="M318.34,86.17C198.41,186.09,179.82,375,98.59,514.41c-28.28,48.5-64.82,91.9-83.88,145.71C-29,783.27,31.18,923,111.8,1020.79c38.44,46.66,83.35,89.41,137.68,109.08C291.26,1145,336.06,1145.63,380,1146l770.47,7.88c86,.86,181.6-2.26,243.45-68.28,42.63-45.45,59.94-111.84,74.64-175.2,18.05-77.86,34.42-162.41,6.32-236.57-32.09-84.84-113.24-132.92-163.65-206.13-81.81-118.61-79.93-298-184.11-392.71-48.64-44.19-112.82-61.52-175.36-70.19C833.89-11.54,722.21,19.34,606.43,15,507.46,11.36,400.45,17.77,318.34,86.17Z" style="opacity:0.5;isolation:isolate;fill:url(#linear-gradient)"/><g style="clip-path:url(#clip-path)"><path d="M1089.58,681.1c4.93,4,6.43,10.3,5.51,16.38a28.4,28.4,0,0,1-9.82,17.07c-5.87,5.18-13,8.68-19.92,12.26a145.71,145.71,0,0,0-18.22,11c-22.2,16-39,38.85-48.56,64.32s-12.14,54.28-4.87,80.63c3.61,13,10.89,27.1,24.46,32,10.82,3.91,25.59,1.39,31.1-9.69,5.92-11.9-2.34-25.28-13-31.19-13.79-7.66-30.25-2.06-42.65,5.69C980,888.11,969,900.36,954.76,908a48.91,48.91,0,0,1-20.88,6.06,52.68,52.68,0,0,1-19.79-3,66.93,66.93,0,0,1-32.37-25c-9.05-13.08-13.1-29.11-13.84-44.81-1.66-35.13,12.31-68,23.51-100.58a304,304,0,0,0,13.48-52.17,267.67,267.67,0,0,0,3-54c-.74-15.95-2.32-32.63-9.41-47.2-6.22-12.81-17.61-23.29-32-25.94a32.18,32.18,0,0,0-19.24,2.2c-2.05.93-.27,3.94,1.77,3,12.74-5.77,27.79-.15,37.2,9.17,11,10.89,15,27,16.81,41.8a260.89,260.89,0,0,1-9.32,104.67c-9.77,33-25.14,64.57-28.68,99.12-1.62,15.76-.79,32.06,4.28,47.18A73.75,73.75,0,0,0,892.76,903c10.35,8.31,23.08,14,36.48,14.6,15,.71,28.24-5.95,39.91-14.82,12.5-9.5,24-21.21,39.14-26.54,6.91-2.42,14.77-3.56,21.86-1.22a27.38,27.38,0,0,1,14.57,11.64c3.08,5.09,4.21,11.45,1.4,16.92-2.64,5.13-7.79,8.11-13.37,9.12a26.12,26.12,0,0,1-17.24-2.91c-6.11-3.47-10.58-9.29-13.72-15.44-6.25-12.27-8.35-26.88-8.67-40.5a133.34,133.34,0,0,1,5.09-39.37,138.82,138.82,0,0,1,42.24-66.91,123.74,123.74,0,0,1,16.35-12c6.3-3.85,13-6.93,19.44-10.57s12.54-7.86,16.89-13.75a29.45,29.45,0,0,0,5.72-17.39,19.45,19.45,0,0,0-6.79-15.21c-1.74-1.4-4.24,1-2.48,2.47Z" style="fill:#168194"/><path d="M674.39,884.39a102.66,102.66,0,0,0,52.05,16.21,24,24,0,0,1-1.11,2.28,29.31,29.31,0,0,1-50.69,1.28,28.93,28.93,0,0,1-4.25-15.08v-4.69Z" style="fill:#168194"/><path d="M783.55,885.76v3.32a28.92,28.92,0,0,1-6.14,17.81A29.28,29.28,0,0,1,728.69,903a23,23,0,0,1-1.16-2.33c.85,0,1.69,0,2.55,0a102.89,102.89,0,0,0,53.47-14.91Z" style="fill:#168194"/><path d="M822.92,535.24c-.88-.13-1.77-.21-2.66-.27a97.13,97.13,0,0,1,2,72.94c.89-.11,1.77-.25,2.64-.41a36.88,36.88,0,0,0,21.74-13,36.45,36.45,0,0,0-1.27-47.36A37,37,0,0,0,822.92,535.24Z" style="fill:#168194"/><path d="M639.89,535c-.89.06-1.78.14-2.65.27a37,37,0,0,0-22.41,11.86,36.46,36.46,0,0,0-1.28,47.36,36.91,36.91,0,0,0,21.74,13c.88.16,1.76.3,2.65.41A97.08,97.08,0,0,1,639.89,535Z" style="fill:#168194"/><path d="M822.92,535.24a99.5,99.5,0,1,0,7.81,38.61,100.31,100.31,0,0,0-7.81-38.61Zm-.7,72.67a97.16,97.16,0,1,1,6.17-34.06,97.9,97.9,0,0,1-6.17,34.06Z" style="fill:#403d56"/><path d="M781.57,551.17h-103a20.57,20.57,0,0,0-14.48,6,20.27,20.27,0,0,0,0,28.79,20.57,20.57,0,0,0,14.48,6h103a20.61,20.61,0,0,0,14.49-6,20.29,20.29,0,0,0,0-28.79,20.61,20.61,0,0,0-14.49-6Z" style="fill:#168194"/><path d="M730.08,693.65a105.64,105.64,0,0,0-73.6,29.84,104.22,104.22,0,0,0-3.33,146.28,105.66,105.66,0,0,0,72.18,33.11q1.67.09,3.36.09c.46,0,.92,0,1.39,0a105.69,105.69,0,0,0,74.48-30.66,104.23,104.23,0,0,0,0-148,105.68,105.68,0,0,0-74.48-30.65Zm53.47,192.11a102.89,102.89,0,0,1-53.47,14.91c-.86,0-1.7,0-2.55,0-.37,0-.73,0-1.09,0A103.37,103.37,0,0,1,660,873.36a102.24,102.24,0,0,1,44-174.18,103.22,103.22,0,0,1,120.94,59.1,102.07,102.07,0,0,1-41.34,127.48Z" style="fill:#403d56"/><path d="M804,772.54H758a12.14,12.14,0,0,1-8.55-3.52,12,12,0,0,1,0-17A12.14,12.14,0,0,1,758,748.5h46a12.17,12.17,0,0,1,8.56,3.52,12,12,0,0,1,0,17,12.17,12.17,0,0,1-8.56,3.52Z" style="fill:#403d56"/><path d="M761,766.62a6.1,6.1,0,1,0-6.14-6.1A6.12,6.12,0,0,0,761,766.62Z" style="fill:#f2f2f3"/><path d="M781,766.62a6.1,6.1,0,1,0-6.14-6.1A6.12,6.12,0,0,0,781,766.62Z" style="fill:#f2f2f3"/><path d="M800.94,766.62a6.1,6.1,0,1,0-6.14-6.1A6.11,6.11,0,0,0,800.94,766.62Z" style="fill:#6466ae"/><path d="M372.38,915.08c10.52-8.84,16.91-22.8,15.24-36.39s-12.06-26.09-25.53-29-28.83,5.1-32.92,18.18c-2.25-25.21-4.84-51.48-18.33-72.95-12.21-19.43-33.36-33.34-56.28-35.83S207.5,766,193.2,784s-17.79,44.12-7.78,64.76c7.38,15.21,21,26.52,35.2,35.73C266.05,913.87,322.39,923.8,376,916Z" style="fill:#168194"/><path d="M215.87,766.55a370.25,370.25,0,0,1,51.8,51.12,373.76,373.76,0,0,1,40.86,60.09A370.84,370.84,0,0,1,326,914.57c1.05,2.56-3.13,3.67-4.17,1.14a365.68,365.68,0,0,0-33.71-63.39,369.39,369.39,0,0,0-45.22-55.51,366.22,366.22,0,0,0-30.11-27.22c-2.15-1.75.92-4.77,3.06-3Z" style="fill:#fff"/><path d="M368.81,547.9a36.06,36.06,0,1,0-36.28-36A36.17,36.17,0,0,0,368.81,547.9Z" style="fill:#2f2e41"/><path d="M504.12,643.87a12.48,12.48,0,0,1-2.52,2.76,12.92,12.92,0,0,1-19-2.91,10.65,10.65,0,0,1-.63-1.09l-57.17-5.48a21,21,0,0,1-18.59-16.86l-3.24-17,22.31-3.45,4,13.62L485,627.06a11.4,11.4,0,0,1,1.37-1,12.83,12.83,0,0,1,17.72,17.84Z" style="fill:#f9b6b8"/><path d="M430.66,611.4l-24.92,6.69a5.28,5.28,0,0,1-6.46-3.69l-8.73-32.11a14.41,14.41,0,0,1,8.78-17.21A14.53,14.53,0,0,1,417.47,572L434,604a5.14,5.14,0,0,1,.58,2.24,5.23,5.23,0,0,1-3.89,5.2Z" style="fill:#2f2e41"/><path d="M416.22,906.28h14.35l6.83-55H416.22Z" style="fill:#f9b6b8"/><path d="M458.24,919.52H413.15V902.21h27.67a17.47,17.47,0,0,1,12.32,5.07,17.23,17.23,0,0,1,5.1,12.24Z" style="fill:#2f2e41"/><path d="M288.34,892.38l13.43,5,25.93-49.06-19.81-7.43Z" style="fill:#f9b6b8"/><path d="M323,919.52l-42.19-15.83,6.15-16.2,25.89,9.72a17.35,17.35,0,0,1,9.72,9.07,17.18,17.18,0,0,1,.43,13.24Z" style="fill:#2f2e41"/><path d="M415.77,893.51a5.36,5.36,0,0,1-3.09-1,5.22,5.22,0,0,1-1.91-2.62l-36.6-112.31a1.77,1.77,0,0,0-.59-.84,1.8,1.8,0,0,0-1-.36,1.75,1.75,0,0,0-1,.24,1.77,1.77,0,0,0-.7.76L320.2,884.6a5.27,5.27,0,0,1-6.43,2.74l-20-6.62a5.23,5.23,0,0,1-3.42-6.3l31.06-116.94a265.53,265.53,0,0,0,7-37.71,85.32,85.32,0,0,1,27.75-54.52,39.67,39.67,0,0,0,12.6-23.8l.09-.59L414.39,648l28.82,233.69a5.26,5.26,0,0,1-3.86,5.69l-22.2,5.94A5.34,5.34,0,0,1,415.77,893.51Z" style="fill:#2f2e41"/><path d="M383.22,547.73a28.57,28.57,0,1,0-28.74-28.56A28.65,28.65,0,0,0,383.22,547.73Z" style="fill:#f9b6b8"/><path d="M411.57,653h-.28l-45.1-2.24a5.28,5.28,0,0,1-3.36-1.43,5.14,5.14,0,0,1-1.61-3.27l-6.16-59.69A26.9,26.9,0,0,1,364.58,563a27.24,27.24,0,0,1,24.8-5.32h0a26.35,26.35,0,0,1,9.65,4.94c31.72,25.89,21.49,72.8,17.6,86.56a5.13,5.13,0,0,1-1.88,2.77,5.22,5.22,0,0,1-3.18,1.06Z" style="fill:#168194"/><path d="M372.33,693.07a12.85,12.85,0,0,1-3.7-.55,13.06,13.06,0,0,1-4.72-2.59,12.75,12.75,0,0,1-3.23-4.27,12.94,12.94,0,0,1-1.2-5.22,12.76,12.76,0,0,1,1.06-5.24c.17-.39.36-.76.56-1.13L334,623.73A20.83,20.83,0,0,1,337.86,599l12.44-12.1,15.25,16.55-9.19,10.85L375.84,668a11.48,11.48,0,0,1,1.62.56,12.76,12.76,0,0,1,3,21.68,12.94,12.94,0,0,1-8.14,2.86Z" style="fill:#f9b6b8"/><path d="M358.84,614.31l-19.41-16.92a5.21,5.21,0,0,1-.49-7.38L361,565a14.53,14.53,0,0,1,25.06,6.33,14.24,14.24,0,0,1-1.49,10.22l-17.67,31.39a5.14,5.14,0,0,1-1.56,1.72,5.23,5.23,0,0,1-2.14.88,5.39,5.39,0,0,1-2.33-.12,5.33,5.33,0,0,1-2-1.1Z" style="fill:#2f2e41"/><path d="M364.72,546.91c2.63.93,5.84,1.74,7.9-.17s1.65-5.3.47-7.82-3-4.76-3.6-7.5c-.81-3.94,1.29-8,4.27-10.59s6.74-3.91,10.41-5.2l20.12-7.11c5-1.76,10.35-3.83,13.14-8.46,4-6.7.35-16.28-6.27-20.19s-15-3.18-22.11-.43c-3.95,1.52-7.7,3.62-11.78,4.69-8.06,2.11-17.22.22-24.3,4.73-6.16,3.93-9,11.95-8.82,19.45s3,14.65,5.92,21.51c1.75,4.08,3.61,8.21,6.57,11.46s7.22,5.52,11.49,4.92Z" style="fill:#2f2e41"/><path d="M338.38,517.66A23.26,23.26,0,1,0,315,494.4,23.33,23.33,0,0,0,338.38,517.66Z" style="fill:#2f2e41"/><path d="M528.22,628.68l-.41-.06,1.56-11.31a6.56,6.56,0,0,0-1.29-4.89,6.66,6.66,0,0,0-4.39-2.55l-24.11-3.29a6.65,6.65,0,0,0-4.92,1.28,6.54,6.54,0,0,0-2.57,4.36l-8.58,62a6.61,6.61,0,0,0,5.68,7.44L513.3,685a6.64,6.64,0,0,0,7.49-5.65l5.9-42.68.42.06Z" style="fill:#403d56"/><path d="M522.93,613.19l-3-.41a2.32,2.32,0,0,1,0,1.08,2.29,2.29,0,0,1-.51,1,2.4,2.4,0,0,1-.9.61,2.25,2.25,0,0,1-1.09.12l-13.17-1.8a2.19,2.19,0,0,1-1-.41,2.23,2.23,0,0,1-.63-2.93l-2.81-.38a4.76,4.76,0,0,0-1.84.11,4.72,4.72,0,0,0-2.89,2.18,4.64,4.64,0,0,0-.6,1.73l-8.17,59.09a4.62,4.62,0,0,0,.91,3.48,4.74,4.74,0,0,0,3.13,1.82l23.11,3.16a4.72,4.72,0,0,0,5.33-4h0L527,618.49a4.67,4.67,0,0,0-.92-3.48,4.71,4.71,0,0,0-3.13-1.82Z" style="fill:#fff"/><path d="M1170.32,920.42H188.06a1.39,1.39,0,1,1,0-2.77h982.26a1.39,1.39,0,0,1,0,2.77Z" style="fill:#cccccb"/><path d="M513.8,644.73l3.64,2.88-4.56,5.7-3.64-2.88-.69,4.59-7.24-1.08.7-4.58-4.34,1.7L495,644.28l4.34-1.7-3.65-2.88,4.56-5.7,3.65,2.88.69-4.58,7.23,1.07-.69,4.59,4.34-1.7,2.67,6.77Z" style="fill:#168194"/><path d="M508.08,640.17l-.58,3.88h0l-1.08,7.19h0s0,.08,0,.12a.86.86,0,1,1-1.69-.25l0-.11h0l1.68-11.07a1.66,1.66,0,0,1,.25-2.75,1.67,1.67,0,0,1,2.46,1.26,1.71,1.71,0,0,1-.22,1A1.75,1.75,0,0,1,508.08,640.17Z" style="fill:#fff;stroke:#fff;stroke-miterlimit:10"/><path d="M505.64,644h0Z" style="fill:#fff;stroke:#fff;stroke-miterlimit:10"/><path d="M510.46,643.43h0l-3.23-.48h-.06Z" style="fill:#fff;stroke:#fff;stroke-miterlimit:10"/><path d="M506.87,644.51h0l-.09,0-2.6-.39a.34.34,0,0,0-.24.06.33.33,0,0,0-.13.21v.08a.32.32,0,0,0,.06.23.3.3,0,0,0,.21.12l2.6.39h0l0,0,1.61.23.09,0a1.2,1.2,0,0,1,1.08,1.25,1.24,1.24,0,0,1-1.49.86l-2.43-.36h-.07l-1.08-.16a.34.34,0,0,0-.24.06.28.28,0,0,0-.12.21l0,.07a.34.34,0,0,0,.06.24.3.3,0,0,0,.21.12l2.6.39h0l.08,0h0a1.19,1.19,0,0,1,1,1.23,1.24,1.24,0,0,1-1.49.87l-2.43-.36h0a.42.42,0,0,1-.24-.14.4.4,0,0,1-.07-.28.35.35,0,0,1,.14-.23.4.4,0,0,1,.28-.07h0l2.6.39a.34.34,0,0,0,.24-.06.28.28,0,0,0,.12-.21l0-.08a.32.32,0,0,0-.06-.23.3.3,0,0,0-.21-.12l-2.63-.39h0l-.06,0a1.19,1.19,0,0,1-1-1.24,1.21,1.21,0,0,1,1.4-.87h.09l.89.13h.09l2.6.38a.29.29,0,0,0,.24-.06.34.34,0,0,0,.13-.2v-.08a.31.31,0,0,0-.27-.36l-1.77-.26h-.09l-2.42-.36a1.23,1.23,0,0,1-1.17-1.26,1.2,1.2,0,0,1,1.4-.88h.09l2.45.36H507l2.6.38a.33.33,0,0,0,.24,0,.3.3,0,0,0,.12-.21v-.08a.3.3,0,0,0-.05-.24.35.35,0,0,0-.21-.12l-2.63-.39h0l-.77-.12h0l-2.42-.36a1.22,1.22,0,0,1-1.17-1.26,1.21,1.21,0,0,1,1.4-.88h.09l5.65.84a.84.84,0,0,1,.54-.1c.38.06.65.33.61.61s-.39.45-.76.4a.92.92,0,0,1-.45-.2l-3.14-.47h-.1l-2.63-.39a.35.35,0,0,0-.24.06.32.32,0,0,0-.12.21v.08a.28.28,0,0,0,.05.23.3.3,0,0,0,.21.12l2.6.39h0l.08,0,.67.1h0l2.45.36.09,0a1.22,1.22,0,0,1,1.08,1.25,1.24,1.24,0,0,1-1.49.86l-2.43-.36Z" style="fill:#fff;stroke:#fff;stroke-miterlimit:10"/><path d="M505,649.26l-.14,0-.12.79.14,0Z" style="fill:#168194"/><path d="M505.4,646.39l-.14,0-.12.8.14,0Z" style="fill:#168194"/><path d="M505.83,643.56l-.14,0-.12.8.14,0Z" style="fill:#168194"/><path d="M506.84,649.54l-.14,0-.12.79.14,0Z" style="fill:#168194"/><path d="M507.27,646.67l-.14,0-.12.79.15,0Z" style="fill:#168194"/><path d="M507.7,643.86l-.14,0-.12.79.14,0Z" style="fill:#168194"/><path d="M508.13,641l-.15,0-.12.79.15,0Z" style="fill:#168194"/><path d="M506.26,640.75l-.15,0-.12.79.15,0Z" style="fill:#168194"/><path d="M506.83,648.87l-1.79-.26,0,.29,1.78.26Z" style="fill:#168194"/><path d="M507.25,646l-1.78-.26-.05.29,1.79.26Z" style="fill:#168194"/><path d="M507.81,642.21l-1.8-.29,0,.24,1.8.29Z" style="fill:#168194"/><path d="M507,642.18l-1-.15,0,.15,1,.15Z" style="fill:#168194"/><path d="M507.81,642.18l-1.73-.26,0,.14,1.73.26Z" style="fill:#168194"/><path d="M507.72,643.47l-2-.29,0-.25,2,.29Z" style="fill:#168194"/><path d="M507,647.78l-1.88-.28-.05.33,1.88.28Z" style="fill:#168194"/><path d="M507.38,645l-1.73-.26,0,.25,1.73.26Z" style="fill:#168194"/></g></g></g></svg>