<svg xmlns="http://www.w3.org/2000/svg" viewBox="0 0 332.39 79.88"><title>logo_light</title><g id="Layer_2" data-name="Layer 2"><g id="Layer_1-2" data-name="Layer 1"><polygon points="67.81 39.94 82.47 48.4 69.18 71.42 54.52 62.96 54.52 79.88 27.95 79.88 27.95 62.96 13.29 71.42 0 48.4 14.66 39.94 0 31.48 13.29 8.46 27.95 16.92 27.95 0 54.52 0 54.52 16.92 69.18 8.46 82.47 31.48 67.81 39.94" style="fill:#fff"/><path d="M44.79,26.52V40.85h0V67.43h0a3.25,3.25,0,0,1,0,.44,3.39,3.39,0,0,1-3.1,3.62,3.39,3.39,0,0,1-3.1-3.62c0-.15,0-.29,0-.44h0V26.52a6.07,6.07,0,1,1,6.18,0Z" style="fill:#138194"/><path d="M38.06,41.53h0Z" style="fill:#138194"/><path d="M43.09,41.53h0Z" style="fill:#138194"/><path d="M55.09,37h0Z" style="fill:#138194"/><path d="M42.78,42.88h-.1a1.54,1.54,0,0,1-.3,0H32.8A1.16,1.16,0,0,0,31.64,44v.29a1.16,1.16,0,0,0,1.16,1.16H48.86c2.55.13,4.56,1.84,4.56,3.92s-2.19,3.94-4.89,3.94h-9l-.17,0h-4a1.15,1.15,0,0,0-1.15,1.16v.29a1.15,1.15,0,0,0,1.15,1.15H45a1,1,0,0,1,.3,0h0l.09,0c2.47.2,4.4,1.88,4.4,3.92s-2.19,3.93-4.89,3.93h-9a1.33,1.33,0,0,1,0-2.65h9.65A1.16,1.16,0,0,0,46.73,60v-.29a1.16,1.16,0,0,0-1.16-1.16H35.78l-.24,0c-2.48-.19-4.42-1.87-4.42-3.91s2-3.79,4.56-3.93h3.61a.9.9,0,0,1,.23,0h9.65a1.16,1.16,0,0,0,1.16-1.16v-.29a1.16,1.16,0,0,0-1.16-1.15H42.66l-.21,0h-9c-2.7,0-4.89-1.76-4.89-3.94s2-3.78,4.56-3.92h9.48l.19,0h9.56a1.16,1.16,0,0,0,1.15-1.16v-.29a1.16,1.16,0,0,0-1.15-1.15H30.77c-2.7,0-4.88-1.76-4.88-3.93s2-3.79,4.55-3.92H51.53a3,3,0,0,1,1.89-.62c1.39,0,2.52.82,2.52,1.85s-1.13,1.84-2.52,1.84a3.1,3.1,0,0,1-1.71-.48H40.15l-.23,0H30.13A1.14,1.14,0,0,0,29,33.53v.29A1.14,1.14,0,0,0,30.13,35h9.65a1.43,1.43,0,0,1,.29,0H52c2.55.14,4.56,1.84,4.56,3.92s-2.19,3.94-4.88,3.94H42.78Z" style="fill:#138194"/><rect x="38" y="61.04" width="0.52" height="2.93" style="fill:#fff"/><rect x="38.01" y="50.45" width="0.52" height="2.93" style="fill:#fff"/><rect x="38.01" y="40" width="0.52" height="2.93" style="fill:#fff"/><rect x="44.88" y="61.04" width="0.52" height="2.93" style="fill:#fff"/><rect x="44.88" y="50.45" width="0.52" height="2.93" style="fill:#fff"/><rect x="44.88" y="40.07" width="0.52" height="2.93" style="fill:#fcfcfc"/><rect x="44.88" y="29.6" width="0.52" height="2.93" style="fill:#fff"/><rect x="38.01" y="29.6" width="0.52" height="2.93" style="fill:#fff"/><rect x="38.42" y="58.64" width="6.55" height="1.07" style="fill:#fff"/><rect x="38.42" y="48.19" width="6.55" height="1.07" style="fill:#fff"/><polygon points="44.88 34.04 38.54 33.96 38.53 34.84 44.87 34.93 44.88 34.04" style="fill:#fff"/><rect x="38.73" y="34.34" width="3.51" height="0.55" style="fill:#fff"/><rect x="38.79" y="33.95" width="6.09" height="0.5" style="fill:#fff"/><path d="M45.26,38.65H38v-.93h7.25Z" style="fill:#fff"/><rect x="38.16" y="54.6" width="6.9" height="1.21" style="fill:#fff"/><rect x="38.53" y="44.42" width="6.35" height="0.93" style="fill:#fff"/><text transform="translate(104.95 58.64)" style="font-size:48px;fill:#f9f9f9;font-family:Roboto-Black, Roboto;font-weight:800">AskLepios</text></g></g></svg>